PathFileType	4	(X/Y/Z)	C:\Users\italobelli\Desktop\GitHub\PTbot_officialCBL\Personal_Results\ABD01_noisy1.trc
DataRate	CameraRate	NumFrames	NumMarkers	Units	OrigDataRate	OrigDataStartFrame	OrigNumFrames
104.666667	104.666667	38	9	m	104.666667	826	1100
Frame#	Time		gu		centelbow		EpL		centpxt8		centijc7		ij		ts		aa		ai
			X1	Y1	Z1	X2	Y2	Z2	X3	Y3	Z3	X4	Y4	Z4	X5	Y5	Z5	X6	Y6	Z6	X7	Y7	Z7	X8	Y8	Z8	X9	Y9	Z9

826	7.8822	-0.10086	0.050988	0.11665	-0.075884	0.14442	0.33567	-0.094293	0.16802	0.3248	-0.046816	-0.15316	-0.008669	-0.046816	0.031938	-0.008669	0	0	0	-0.13404	-0.0062766	0.023201	-0.14003	0.061678	0.11959	-0.13243	-0.095362	0.091436
827	7.8917	-0.10081	0.050554	0.11706	-0.076186	0.14085	0.33765	-0.094552	0.16464	0.32703	-0.046816	-0.15316	-0.008669	-0.046816	0.031938	-0.008669	0	0	0	-0.13391	-0.0058914	0.022818	-0.13989	0.061213	0.11992	-0.13223	-0.095695	0.090307
828	7.9013	-0.10077	0.050129	0.11748	-0.076496	0.13731	0.33958	-0.09482	0.16129	0.3292	-0.046816	-0.15316	-0.008669	-0.046816	0.031938	-0.008669	0	0	0	-0.13377	-0.0055116	0.022451	-0.13977	0.060763	0.12024	-0.13203	-0.096007	0.089218
829	7.9108	-0.10072	0.049713	0.1179	-0.076813	0.13381	0.34148	-0.095097	0.15796	0.33133	-0.046816	-0.15316	-0.008669	-0.046816	0.031938	-0.008669	0	0	0	-0.13364	-0.0051378	0.022102	-0.13964	0.060329	0.12056	-0.13182	-0.096297	0.088171
830	7.9204	-0.10069	0.049307	0.11832	-0.077139	0.13034	0.34333	-0.095384	0.15466	0.33341	-0.046816	-0.15316	-0.008669	-0.046816	0.031938	-0.008669	0	0	0	-0.1335	-0.0047706	0.021771	-0.13953	0.059911	0.12088	-0.13162	-0.096563	0.087169
831	7.9299	-0.10065	0.048911	0.11873	-0.077475	0.12691	0.34514	-0.095681	0.15139	0.33543	-0.046816	-0.15316	-0.008669	-0.046816	0.031938	-0.008669	0	0	0	-0.13337	-0.0044107	0.02146	-0.13942	0.059511	0.12118	-0.13142	-0.096804	0.086215
832	7.9395	-0.10063	0.048528	0.11915	-0.07782	0.12353	0.34689	-0.09599	0.14817	0.3374	-0.046816	-0.15316	-0.008669	-0.046816	0.031938	-0.008669	0	0	0	-0.13323	-0.0040587	0.021169	-0.13932	0.059129	0.12148	-0.13123	-0.09702	0.08531
833	7.949	-0.1006	0.048156	0.11956	-0.078176	0.1202	0.3486	-0.096311	0.14498	0.33931	-0.046816	-0.15316	-0.008669	-0.046816	0.031938	-0.008669	0	0	0	-0.1331	-0.0037153	0.020899	-0.13923	0.058767	0.12177	-0.13103	-0.097209	0.084458
834	7.9586	-0.10059	0.047799	0.11997	-0.078542	0.11692	0.35025	-0.096644	0.14184	0.34115	-0.046816	-0.15316	-0.008669	-0.046816	0.031938	-0.008669	0	0	0	-0.13296	-0.003381	0.020651	-0.13914	0.058426	0.12205	-0.13084	-0.09737	0.083661
835	7.9682	-0.10058	0.047455	0.12037	-0.078921	0.1137	0.35185	-0.096991	0.13876	0.34294	-0.046816	-0.15316	-0.008669	-0.046816	0.031938	-0.008669	0	0	0	-0.13282	-0.0030566	0.020426	-0.13907	0.058106	0.12232	-0.13064	-0.097503	0.082921
836	7.9777	-0.10057	0.047127	0.12077	-0.079311	0.11055	0.35338	-0.097351	0.13572	0.34465	-0.046816	-0.15316	-0.008669	-0.046816	0.031938	-0.008669	0	0	0	-0.13268	-0.0027426	0.020225	-0.139	0.057809	0.12258	-0.13045	-0.097606	0.082242
837	7.9873	-0.10057	0.046815	0.12117	-0.079715	0.10746	0.35486	-0.097726	0.13275	0.3463	-0.046816	-0.15316	-0.008669	-0.046816	0.031938	-0.008669	0	0	0	-0.13255	-0.0024396	0.020048	-0.13895	0.057535	0.12283	-0.13027	-0.097678	0.081626
838	7.9968	-0.10058	0.04652	0.12157	-0.080132	0.10444	0.35628	-0.098116	0.12984	0.34787	-0.046816	-0.15316	-0.008669	-0.046816	0.031938	-0.008669	0	0	0	-0.13241	-0.0021484	0.019897	-0.1389	0.057286	0.12307	-0.13008	-0.097718	0.081075
839	8.0064	-0.10059	0.046242	0.12196	-0.08056	0.10148	0.35765	-0.09852	0.12697	0.34939	-0.046816	-0.15316	-0.008669	-0.046816	0.031938	-0.008669	0	0	0	-0.13227	-0.0018669	0.019768	-0.13887	0.057059	0.1233	-0.1299	-0.097731	0.080578
840	8.0159	-0.10061	0.045975	0.12236	-0.080991	0.098528	0.35899	-0.098927	0.12412	0.35089	-0.046816	-0.15316	-0.008669	-0.046816	0.031938	-0.008669	0	0	0	-0.13212	-0.0015873	0.019646	-0.13883	0.056843	0.12353	-0.1297	-0.097736	0.080095
841	8.0255	-0.10063	0.045719	0.12277	-0.081424	0.095578	0.3603	-0.099337	0.12126	0.35239	-0.046816	-0.15316	-0.008669	-0.046816	0.031938	-0.008669	0	0	0	-0.13197	-0.0013089	0.01953	-0.1388	0.056636	0.12374	-0.1295	-0.097735	0.079622
842	8.035	-0.10065	0.045473	0.12318	-0.081859	0.092629	0.3616	-0.099751	0.1184	0.35388	-0.046816	-0.15316	-0.008669	-0.046816	0.031938	-0.008669	0	0	0	-0.13182	-0.0010317	0.019419	-0.13877	0.056437	0.12396	-0.12928	-0.097728	0.079159
843	8.0446	-0.10068	0.045238	0.12359	-0.082296	0.089682	0.36287	-0.10017	0.11554	0.35536	-0.046816	-0.15316	-0.008669	-0.046816	0.031938	-0.008669	0	0	0	-0.13166	-0.00075556	0.019313	-0.13873	0.056248	0.12416	-0.12906	-0.097715	0.078705
844	8.0541	-0.10071	0.045011	0.12401	-0.082734	0.086737	0.36412	-0.10059	0.11268	0.35683	-0.046816	-0.15316	-0.008669	-0.046816	0.031938	-0.008669	0	0	0	-0.1315	-0.00048061	0.019213	-0.1387	0.056067	0.12436	-0.12883	-0.097697	0.078259
845	8.0637	-0.10074	0.044794	0.12443	-0.083175	0.083793	0.36534	-0.10101	0.10981	0.35828	-0.046816	-0.15316	-0.008669	-0.046816	0.031938	-0.008669	0	0	0	-0.13134	-0.00020677	0.019119	-0.13867	0.055893	0.12456	-0.1286	-0.097672	0.077823
846	8.0732	-0.10078	0.044585	0.12486	-0.083619	0.080851	0.36653	-0.10144	0.10695	0.35972	-0.046816	-0.15316	-0.008669	-0.046816	0.031938	-0.008669	0	0	0	-0.13117	6.5972e-05	0.01903	-0.13864	0.055727	0.12475	-0.12835	-0.097642	0.077395
847	8.0828	-0.10082	0.044383	0.12529	-0.084064	0.077911	0.3677	-0.10187	0.10409	0.36115	-0.046816	-0.15316	-0.008669	-0.046816	0.031938	-0.008669	0	0	0	-0.131	0.00033764	0.018946	-0.13862	0.055569	0.12493	-0.1281	-0.097607	0.076976
848	8.0924	-0.10087	0.04419	0.12573	-0.084511	0.074973	0.36884	-0.1023	0.10122	0.36255	-0.046816	-0.15316	-0.008669	-0.046816	0.031938	-0.008669	0	0	0	-0.13082	0.00060826	0.018868	-0.13859	0.055417	0.12511	-0.12784	-0.097567	0.076564
849	8.1019	-0.10091	0.044003	0.12617	-0.084961	0.072036	0.36995	-0.10273	0.098353	0.36394	-0.046816	-0.15316	-0.008669	-0.046816	0.031938	-0.008669	0	0	0	-0.13065	0.00087784	0.018795	-0.13856	0.055272	0.12529	-0.12758	-0.097521	0.076161
850	8.1115	-0.10096	0.043823	0.12661	-0.085412	0.0691	0.37103	-0.10317	0.095485	0.36531	-0.046816	-0.15316	-0.008669	-0.046816	0.031938	-0.008669	0	0	0	-0.13047	0.0011464	0.018727	-0.13854	0.055133	0.12546	-0.12731	-0.097471	0.075765
851	8.121	-0.10102	0.043649	0.12705	-0.085866	0.066167	0.37208	-0.10361	0.092617	0.36665	-0.046816	-0.15316	-0.008669	-0.046816	0.031938	-0.008669	0	0	0	-0.13029	0.001414	0.018665	-0.13851	0.055	0.12563	-0.12704	-0.097417	0.075376
852	8.1306	-0.10107	0.043481	0.1275	-0.086322	0.063234	0.3731	-0.10405	0.089747	0.36797	-0.046816	-0.15316	-0.008669	-0.046816	0.031938	-0.008669	0	0	0	-0.13011	0.0016806	0.018607	-0.13849	0.054872	0.1258	-0.12676	-0.097358	0.074994
853	8.1401	-0.10113	0.043318	0.12795	-0.086781	0.060304	0.37408	-0.1045	0.086876	0.36927	-0.046816	-0.15316	-0.008669	-0.046816	0.031938	-0.008669	0	0	0	-0.12993	0.0019462	0.018556	-0.13846	0.05475	0.12596	-0.12649	-0.097295	0.074619
854	8.1497	-0.10119	0.043159	0.1284	-0.087241	0.057375	0.37503	-0.10495	0.084003	0.37053	-0.046816	-0.15316	-0.008669	-0.046816	0.031938	-0.008669	0	0	0	-0.12975	0.0022109	0.018509	-0.13844	0.054632	0.12612	-0.1262	-0.097227	0.074251
855	8.1592	-0.10125	0.043005	0.12886	-0.087704	0.054447	0.37595	-0.1054	0.08113	0.37177	-0.046816	-0.15316	-0.008669	-0.046816	0.031938	-0.008669	0	0	0	-0.12957	0.0024747	0.018467	-0.13842	0.054519	0.12628	-0.12592	-0.097156	0.073889
856	8.1688	-0.10131	0.042855	0.12931	-0.08817	0.051521	0.37683	-0.10585	0.078255	0.37298	-0.046816	-0.15316	-0.008669	-0.046816	0.031938	-0.008669	0	0	0	-0.12939	0.0027376	0.018431	-0.1384	0.054409	0.12643	-0.12563	-0.097081	0.073533
857	8.1783	-0.10138	0.042707	0.12977	-0.088637	0.048596	0.37767	-0.10631	0.075379	0.37416	-0.046816	-0.15316	-0.008669	-0.046816	0.031938	-0.008669	0	0	0	-0.12921	0.0029997	0.0184	-0.13838	0.054304	0.12658	-0.12534	-0.097002	0.073183
858	8.1879	-0.10145	0.042563	0.13023	-0.089107	0.045673	0.37847	-0.10677	0.072501	0.3753	-0.046816	-0.15316	-0.008669	-0.046816	0.031938	-0.008669	0	0	0	-0.12902	0.0032608	0.018374	-0.13836	0.054201	0.12673	-0.12506	-0.09692	0.072838
859	8.1975	-0.10151	0.042421	0.13068	-0.08958	0.042751	0.37924	-0.10723	0.069622	0.37641	-0.046816	-0.15316	-0.008669	-0.046816	0.031938	-0.008669	0	0	0	-0.12884	0.0035212	0.018353	-0.13835	0.054102	0.12688	-0.12477	-0.096835	0.072498
860	8.207	-0.10158	0.04228	0.13114	-0.090055	0.039831	0.37997	-0.10769	0.066742	0.37749	-0.046816	-0.15316	-0.008669	-0.046816	0.031938	-0.008669	0	0	0	-0.12866	0.0037807	0.018337	-0.13833	0.054005	0.12702	-0.12448	-0.096747	0.072164
861	8.2166	-0.10166	0.042141	0.1316	-0.090532	0.036912	0.38065	-0.10816	0.06386	0.37853	-0.046816	-0.15316	-0.008669	-0.046816	0.031938	-0.008669	0	0	0	-0.12848	0.0040394	0.018325	-0.13831	0.053911	0.12717	-0.12419	-0.096656	0.071834
862	8.2261	-0.10173	0.042003	0.13206	-0.091012	0.033994	0.3813	-0.10862	0.060977	0.37952	-0.046816	-0.15316	-0.008669	-0.046816	0.031938	-0.008669	0	0	0	-0.12831	0.0042974	0.018319	-0.1383	0.053819	0.12731	-0.12391	-0.096562	0.071509
863	8.2357	-0.1018	0.041865	0.13252	-0.091494	0.031078	0.3819	-0.10909	0.058092	0.38048	-0.046816	-0.15316	-0.008669	-0.046816	0.031938	-0.008669	0	0	0	-0.12813	0.0045546	0.018318	-0.13828	0.053728	0.12745	-0.12362	-0.096465	0.071188
